<?xml version="1.0" encoding="UTF-8"?>
<!DOCTYPE svg PUBLIC "-//W3C//DTD SVG 1.1//EN" "http://www.w3.org/Graphics/SVG/1.1/DTD/svg11.dtd">
<!-- Creator: CorelDRAW -->
<svg xmlns="http://www.w3.org/2000/svg" xml:space="preserve" width="442.819mm" height="54.8417mm" version="1.1" style="shape-rendering:geometricPrecision; text-rendering:geometricPrecision; image-rendering:optimizeQuality; fill-rule:evenodd; clip-rule:evenodd"
viewBox="0 0 77079.03 9545.99"
 xmlns:xlink="http://www.w3.org/1999/xlink"
 xmlns:xodm="http://www.corel.com/coreldraw/odm/2003">
 <defs>
  <style type="text/css">
   <![CDATA[
    .fil0 {fill:#ED3237;fill-rule:nonzero}
    .fil1 {fill:#3E4095;fill-rule:nonzero}
   ]]>
  </style>
 </defs>
 <g id="Слой_x0020_1">
  <metadata id="CorelCorpID_0Corel-Layer"/>
  <g id="_3030873801904">
   <path class="fil0" d="M4671.38 9373.88l-4671.38 0 0 -8851.04 4671.38 0 0 1376.83 -3147.03 0 0 2323.39 3134.74 0 0 1364.53 -3134.74 0 0 2384.87 3147.03 0 0 1401.41zm8494.55 0l-1407.57 0 -4185.8 -6552.22 73.75 6552.22 -1487.47 0 0 -8851.04 1487.47 0 4105.9 6404.7 -61.46 -6404.7 1475.18 0 0 8851.04zm10301.62 -4609.92c-49.17,1401.43 -467.14,2536.48 -1253.89,3405.21 -835.94,917.88 -1942.32,1376.81 -3319.15,1376.81 -1311.26,0 -2399.2,-444.6 -3263.81,-1333.8 -864.63,-889.19 -1296.94,-1993.53 -1296.94,-3312.99 0,-1270.29 454.85,-2345.94 1364.54,-3226.95 909.7,-881.01 1999.67,-1321.5 3269.96,-1321.5 926.09,0 1743.59,219.22 2452.48,659.72 708.91,440.5 1231.37,1077.7 1567.38,1909.54l-1819.39 12.29c-467.14,-753.98 -1225.2,-1130.97 -2274.22,-1130.97 -827.73,0 -1534.59,307.33 -2120.56,921.98 -585.97,614.66 -878.96,1339.95 -878.96,2175.88 0,901.5 276.59,1659.57 829.78,2274.22 553.19,614.66 1276.43,921.98 2169.73,921.98 1401.41,0 2335.68,-655.63 2802.84,-1966.89l-3663.36 0 0 -1364.54 5433.56 0zm5507.31 4609.92l-4351.77 0 0 -8851.04 1524.35 0 0 7449.63 2827.42 0 0 1401.41zm2544.67 0l-1524.33 0 0 -8851.04 1524.33 0 0 8851.04zm6675.15 -2655.32c0,852.32 -256.1,1536.64 -768.3,2052.95 -512.22,516.31 -1194.48,774.46 -2046.81,774.46 -835.94,0 -1503.86,-260.19 -2003.78,-780.61 -499.93,-520.4 -749.89,-1202.68 -749.89,-2046.81l1487.47 0c0,401.58 106.54,737.6 319.62,1008.04 229.47,295.04 536.8,442.56 921.98,442.56 409.78,0 731.44,-127.03 965.01,-381.1 233.58,-254.05 350.36,-585.97 350.36,-995.74 0,-499.93 -327.82,-913.79 -983.45,-1241.6 -606.46,-286.84 -1212.93,-573.68 -1819.39,-860.52 -655.63,-442.56 -983.45,-1053.11 -983.45,-1831.68 0,-762.16 243.81,-1370.67 731.44,-1825.52 487.64,-454.85 1116.62,-682.26 1887,-682.26 762.18,0 1364.54,219.22 1807.08,657.67 442.56,438.47 663.83,1038.78 663.83,1800.94l-1450.58 0c0,-336 -96.29,-604.4 -288.89,-805.19 -192.58,-200.78 -452.79,-301.18 -780.61,-301.18 -327.82,0 -592.12,92.2 -792.9,276.59 -200.78,184.4 -301.18,440.5 -301.18,768.32 0,122.94 20.49,241.78 61.46,356.5 106.54,278.64 450.76,561.39 1032.62,848.23 434.36,196.68 868.72,393.37 1303.08,590.06 581.86,327.82 995.74,741.69 1241.6,1241.6 131.12,270.44 196.68,581.88 196.68,934.27zm7572.57 2655.32l-1524.35 0 0 -3773.98 -3429.77 0 0 3773.98 -1524.35 0 0 -8851.04 1524.35 0 0 3651.05 3429.77 0 0 -3651.05 1524.35 0 0 8851.04z"/>
   <path class="fil1" d="M4671.45 9373.88l-4671.44 0 0 -4636.87 4659.15 0 0 850.55 -3134.78 0 0 2384.89 3147.07 0 0 1401.43zm1487.49 -4636.87l1435.3 0 52.2 4636.87 -1487.5 0 0 -4636.87zm2637.39 0l1551.78 0 1404.28 2190.51 -21.03 -2190.51 1434.74 0 0 4636.87 -1407.57 0 -2962.21 -4636.87zm5540.21 0l1562.45 0c-2.49,53.58 -3.78,107.61 -3.78,162.12 0,901.5 276.61,1659.58 829.8,2274.26 553.19,614.66 1276.45,921.98 2169.77,921.98 1401.43,0 2335.72,-655.63 2802.86,-1966.91l-3663.4 0 0 -1364.56 5433.63 0c-49.17,1401.43 -467.14,2536.5 -1253.91,3405.24 -835.94,917.89 -1942.33,1376.85 -3319.18,1376.85 -1311.28,0 -2399.23,-444.61 -3263.86,-1333.82 -864.63,-889.23 -1296.94,-1993.56 -1296.94,-3313.04 0,-54.41 0.89,-108.44 2.56,-162.12zm10286.91 0l1524.35 0 0 3235.44 2827.47 0 0 1401.43 -4351.82 0 0 -4636.87zm5372.15 0l1524.37 0 0 4636.87 -1524.37 0 0 -4636.87zm3971.45 0l3100.73 0c420.94,292.38 731.18,641.46 930.74,1047.24 131.12,270.44 196.69,581.88 196.69,934.27 0,852.34 -256.1,1536.68 -768.32,2052.99 -512.24,516.31 -1194.5,774.48 -2046.84,774.48 -835.94,0 -1503.88,-260.21 -2003.8,-780.63 -499.93,-520.42 -749.9,-1202.7 -749.9,-2046.84l1487.5 0c0,401.58 106.53,737.6 319.62,1008.06 229.47,295.04 536.81,442.56 922,442.56 409.77,0 731.44,-127.03 965.01,-381.1 233.58,-254.06 350.36,-585.97 350.36,-995.75 0,-499.93 -327.82,-913.8 -983.46,-1241.62l-1720.33 -813.66zm5322.26 0l6478.56 0 0 4636.87 -1524.37 0 0 -3774.03 -3429.82 0 0 3774.03 -1524.37 0 0 -4636.87z"/>
   <path class="fil1" d="M53759 7474.21l-921.98 0 0 1548.93 -1438.29 0 0 -1548.93 -3921.5 0 0 -1290.77 3921.5 -6011.33 1438.29 0 0 6011.33 921.98 0 0 1290.77zm-2360.28 -1290.77l0 -3987.07 -2454.52 3987.07 2454.52 0zm9576.33 -6011.33l-2716.78 5630.24 0 3220.8 -1524.33 0 0 -3257.67 -2692.2 -5593.37 1684.16 0 1782.51 4069.02 1782.49 -4069.02 1684.16 0zm9060.02 4388.63c0,1294.88 -438.45,2391.02 -1315.35,3288.41 -876.92,897.41 -1958.71,1346.09 -3245.38,1346.09 -1270.29,0 -2350.04,-452.79 -3239.23,-1358.38 -889.21,-905.59 -1333.8,-1997.63 -1333.8,-3276.12 0,-1253.89 450.74,-2327.49 1352.24,-3220.78 901.5,-893.3 1979.18,-1339.95 3233.09,-1339.95 1262.09,0 2335.68,444.6 3220.78,1333.8 885.12,889.19 1327.66,1964.84 1327.66,3226.93zm-1561.22 -24.58c0,-819.55 -297.09,-1538.69 -891.24,-2157.44 -594.17,-618.76 -1296.94,-928.13 -2108.27,-928.13 -819.55,0 -1526.41,311.42 -2120.57,934.27 -594.17,622.85 -891.24,1348.15 -891.24,2175.88 0,860.52 290.93,1606.3 872.81,2237.35 581.88,631.04 1294.87,946.56 2139.01,946.56 876.9,0 1602.19,-319.62 2175.88,-958.85 549.09,-614.66 823.64,-1364.54 823.64,-2249.64zm8605.17 1266.18c0,1016.24 -225.36,1819.39 -676.12,2409.45 -508.11,655.63 -1253.89,983.45 -2237.34,983.45 -983.45,0 -1741.53,-303.22 -2274.24,-909.68 -499.91,-573.68 -749.87,-1360.44 -749.87,-2360.28l0 -5753.18 1524.33 0 0 5617.95c0,1335.86 491.73,2003.78 1475.18,2003.78 557.28,0 946.58,-208.98 1167.85,-626.95 163.9,-303.24 245.87,-762.18 245.87,-1376.83l0 -5617.95 1524.33 0 0 5630.24z"/>
  </g>
 </g>
</svg>
